<?xml version="1.0" encoding="utf-8" standalone="no"?>
<!DOCTYPE svg PUBLIC "-//W3C//DTD SVG 1.1//EN"
  "http://www.w3.org/Graphics/SVG/1.1/DTD/svg11.dtd">
<!-- Created with matplotlib (https://matplotlib.org/) -->
<svg height="248.518125pt" version="1.1" viewBox="0 0 375.2875 248.518125" width="375.2875pt" xmlns="http://www.w3.org/2000/svg" xmlns:xlink="http://www.w3.org/1999/xlink">
 <metadata>
  <rdf:RDF xmlns:cc="http://creativecommons.org/ns#" xmlns:dc="http://purl.org/dc/elements/1.1/" xmlns:rdf="http://www.w3.org/1999/02/22-rdf-syntax-ns#">
   <cc:Work>
    <dc:type rdf:resource="http://purl.org/dc/dcmitype/StillImage"/>
    <dc:date>2021-01-12T12:41:52.121933</dc:date>
    <dc:format>image/svg+xml</dc:format>
    <dc:creator>
     <cc:Agent>
      <dc:title>Matplotlib v3.3.2, https://matplotlib.org/</dc:title>
     </cc:Agent>
    </dc:creator>
   </cc:Work>
  </rdf:RDF>
 </metadata>
 <defs>
  <style type="text/css">*{stroke-linecap:butt;stroke-linejoin:round;}</style>
 </defs>
 <g id="figure_1">
  <g id="patch_1">
   <path d="M 0 248.518125 
L 375.2875 248.518125 
L 375.2875 0 
L 0 0 
z
" style="fill:none;"/>
  </g>
  <g id="axes_1">
   <g id="patch_2">
    <path d="M 33.2875 224.64 
L 368.0875 224.64 
L 368.0875 7.2 
L 33.2875 7.2 
z
" style="fill:#ffffff;"/>
   </g>
   <g id="PathCollection_1">
    <defs>
     <path d="M 0 3 
C 0.795609 3 1.55874 2.683901 2.12132 2.12132 
C 2.683901 1.55874 3 0.795609 3 0 
C 3 -0.795609 2.683901 -1.55874 2.12132 -2.12132 
C 1.55874 -2.683901 0.795609 -3 0 -3 
C -0.795609 -3 -1.55874 -2.683901 -2.12132 -2.12132 
C -2.683901 -1.55874 -3 -0.795609 -3 0 
C -3 0.795609 -2.683901 1.55874 -2.12132 2.12132 
C -1.55874 2.683901 -0.795609 3 0 3 
z
" id="mb88d354993" style="stroke:#1f77b4;"/>
    </defs>
    <g clip-path="url(#p3786167dfe)">
     <use style="fill:#1f77b4;stroke:#1f77b4;" x="102.997869" xlink:href="#mb88d354993" y="179.383349"/>
     <use style="fill:#1f77b4;stroke:#1f77b4;" x="267.068892" xlink:href="#mb88d354993" y="109.099713"/>
     <use style="fill:#1f77b4;stroke:#1f77b4;" x="239.872337" xlink:href="#mb88d354993" y="152.564593"/>
     <use style="fill:#1f77b4;stroke:#1f77b4;" x="132.076882" xlink:href="#mb88d354993" y="159.269282"/>
     <use style="fill:#1f77b4;stroke:#1f77b4;" x="293.076527" xlink:href="#mb88d354993" y="82.974545"/>
     <use style="fill:#1f77b4;stroke:#1f77b4;" x="272.270419" xlink:href="#mb88d354993" y="117.191579"/>
     <use style="fill:#1f77b4;stroke:#1f77b4;" x="345.735795" xlink:href="#mb88d354993" y="35.116938"/>
     <use style="fill:#1f77b4;stroke:#1f77b4;" x="336.86843" xlink:href="#mb88d354993" y="53.612632"/>
     <use style="fill:#1f77b4;stroke:#1f77b4;" x="211.090554" xlink:href="#mb88d354993" y="181.695311"/>
     <use style="fill:#1f77b4;stroke:#1f77b4;" x="223.425604" xlink:href="#mb88d354993" y="186.319234"/>
     <use style="fill:#1f77b4;stroke:#1f77b4;" x="167.100497" xlink:href="#mb88d354993" y="109.330909"/>
     <use style="fill:#1f77b4;stroke:#1f77b4;" x="274.94549" xlink:href="#mb88d354993" y="187.937608"/>
     <use style="fill:#1f77b4;stroke:#1f77b4;" x="336.670277" xlink:href="#mb88d354993" y="68.640383"/>
     <use style="fill:#1f77b4;stroke:#1f77b4;" x="168.735263" xlink:href="#mb88d354993" y="127.595407"/>
     <use style="fill:#1f77b4;stroke:#1f77b4;" x="232.045277" xlink:href="#mb88d354993" y="122.740287"/>
     <use style="fill:#1f77b4;stroke:#1f77b4;" x="236.45419" xlink:href="#mb88d354993" y="133.375311"/>
     <use style="fill:#1f77b4;stroke:#1f77b4;" x="253.842152" xlink:href="#mb88d354993" y="132.912919"/>
     <use style="fill:#1f77b4;stroke:#1f77b4;" x="237.098189" xlink:href="#mb88d354993" y="64.710048"/>
     <use style="fill:#1f77b4;stroke:#1f77b4;" x="259.638139" xlink:href="#mb88d354993" y="86.673684"/>
     <use style="fill:#1f77b4;stroke:#1f77b4;" x="289.113459" xlink:href="#mb88d354993" y="82.743349"/>
     <use style="fill:#1f77b4;stroke:#1f77b4;" x="140.54794" xlink:href="#mb88d354993" y="151.871005"/>
     <use style="fill:#1f77b4;stroke:#1f77b4;" x="97.598189" xlink:href="#mb88d354993" y="195.567081"/>
     <use style="fill:#1f77b4;stroke:#1f77b4;" x="172.252486" xlink:href="#mb88d354993" y="163.66201"/>
     <use style="fill:#1f77b4;stroke:#1f77b4;" x="147.582386" xlink:href="#mb88d354993" y="179.383349"/>
     <use style="fill:#1f77b4;stroke:#1f77b4;" x="346.280717" xlink:href="#mb88d354993" y="32.111388"/>
     <use style="fill:#1f77b4;stroke:#1f77b4;" x="50.140447" xlink:href="#mb88d354993" y="214.756364"/>
     <use style="fill:#1f77b4;stroke:#1f77b4;" x="260.083984" xlink:href="#mb88d354993" y="80.431388"/>
     <use style="fill:#1f77b4;stroke:#1f77b4;" x="304.71804" xlink:href="#mb88d354993" y="57.31177"/>
     <use style="fill:#1f77b4;stroke:#1f77b4;" x="299.318359" xlink:href="#mb88d354993" y="93.378373"/>
     <use style="fill:#1f77b4;stroke:#1f77b4;" x="247.798473" xlink:href="#mb88d354993" y="179.614545"/>
     <use style="fill:#1f77b4;stroke:#1f77b4;" x="322.700462" xlink:href="#mb88d354993" y="69.796364"/>
     <use style="fill:#1f77b4;stroke:#1f77b4;" x="349.79794" xlink:href="#mb88d354993" y="32.111388"/>
     <use style="fill:#1f77b4;stroke:#1f77b4;" x="133.909801" xlink:href="#mb88d354993" y="181.232919"/>
     <use style="fill:#1f77b4;stroke:#1f77b4;" x="245.47017" xlink:href="#mb88d354993" y="94.071962"/>
     <use style="fill:#1f77b4;stroke:#1f77b4;" x="267.267045" xlink:href="#mb88d354993" y="98.927081"/>
     <use style="fill:#1f77b4;stroke:#1f77b4;" x="190.631214" xlink:href="#mb88d354993" y="174.52823"/>
     <use style="fill:#1f77b4;stroke:#1f77b4;" x="226.645597" xlink:href="#mb88d354993" y="103.088612"/>
     <use style="fill:#1f77b4;stroke:#1f77b4;" x="141.588246" xlink:href="#mb88d354993" y="200.884593"/>
     <use style="fill:#1f77b4;stroke:#1f77b4;" x="67.875178" xlink:href="#mb88d354993" y="190.480766"/>
     <use style="fill:#1f77b4;stroke:#1f77b4;" x="325.771839" xlink:href="#mb88d354993" y="62.629282"/>
     <use style="fill:#1f77b4;stroke:#1f77b4;" x="134.207031" xlink:href="#mb88d354993" y="165.742775"/>
     <use style="fill:#1f77b4;stroke:#1f77b4;" x="232.441584" xlink:href="#mb88d354993" y="110.024498"/>
     <use style="fill:#1f77b4;stroke:#1f77b4;" x="348.708097" xlink:href="#mb88d354993" y="31.417799"/>
     <use style="fill:#1f77b4;stroke:#1f77b4;" x="333.301669" xlink:href="#mb88d354993" y="57.542967"/>
     <use style="fill:#1f77b4;stroke:#1f77b4;" x="210.198864" xlink:href="#mb88d354993" y="161.81244"/>
     <use style="fill:#1f77b4;stroke:#1f77b4;" x="264.294744" xlink:href="#mb88d354993" y="119.965933"/>
     <use style="fill:#1f77b4;stroke:#1f77b4;" x="342.119496" xlink:href="#mb88d354993" y="44.595981"/>
     <use style="fill:#1f77b4;stroke:#1f77b4;" x="214.80593" xlink:href="#mb88d354993" y="91.991196"/>
     <use style="fill:#1f77b4;stroke:#1f77b4;" x="318.440163" xlink:href="#mb88d354993" y="73.495502"/>
     <use style="fill:#1f77b4;stroke:#1f77b4;" x="199.003196" xlink:href="#mb88d354993" y="123.665072"/>
     <use style="fill:#1f77b4;stroke:#1f77b4;" x="108.546165" xlink:href="#mb88d354993" y="172.67866"/>
     <use style="fill:#1f77b4;stroke:#1f77b4;" x="124.794744" xlink:href="#mb88d354993" y="184.469665"/>
     <use style="fill:#1f77b4;stroke:#1f77b4;" x="225.159446" xlink:href="#mb88d354993" y="103.088612"/>
     <use style="fill:#1f77b4;stroke:#1f77b4;" x="135.197798" xlink:href="#mb88d354993" y="139.617608"/>
     <use style="fill:#1f77b4;stroke:#1f77b4;" x="202.669034" xlink:href="#mb88d354993" y="119.965933"/>
     <use style="fill:#1f77b4;stroke:#1f77b4;" x="294.859908" xlink:href="#mb88d354993" y="91.991196"/>
     <use style="fill:#1f77b4;stroke:#1f77b4;" x="48.505682" xlink:href="#mb88d354993" y="208.051675"/>
     <use style="fill:#1f77b4;stroke:#1f77b4;" x="306.352805" xlink:href="#mb88d354993" y="58.467751"/>
     <use style="fill:#1f77b4;stroke:#1f77b4;" x="221.047763" xlink:href="#mb88d354993" y="193.023923"/>
     <use style="fill:#1f77b4;stroke:#1f77b4;" x="344.745028" xlink:href="#mb88d354993" y="23.788325"/>
     <use style="fill:#1f77b4;stroke:#1f77b4;" x="174.878018" xlink:href="#mb88d354993" y="85.7489"/>
     <use style="fill:#1f77b4;stroke:#1f77b4;" x="237.742188" xlink:href="#mb88d354993" y="95.459139"/>
     <use style="fill:#1f77b4;stroke:#1f77b4;" x="227.834517" xlink:href="#mb88d354993" y="190.249569"/>
     <use style="fill:#1f77b4;stroke:#1f77b4;" x="208.167791" xlink:href="#mb88d354993" y="158.80689"/>
     <use style="fill:#1f77b4;stroke:#1f77b4;" x="341.07919" xlink:href="#mb88d354993" y="31.648995"/>
     <use style="fill:#1f77b4;stroke:#1f77b4;" x="307.739879" xlink:href="#mb88d354993" y="63.554067"/>
     <use style="fill:#1f77b4;stroke:#1f77b4;" x="326.267223" xlink:href="#mb88d354993" y="71.414737"/>
     <use style="fill:#1f77b4;stroke:#1f77b4;" x="263.799361" xlink:href="#mb88d354993" y="84.361722"/>
     <use style="fill:#1f77b4;stroke:#1f77b4;" x="340.038885" xlink:href="#mb88d354993" y="60.548517"/>
     <use style="fill:#1f77b4;stroke:#1f77b4;" x="247.699396" xlink:href="#mb88d354993" y="154.414163"/>
     <use style="fill:#1f77b4;stroke:#1f77b4;" x="253.445845" xlink:href="#mb88d354993" y="177.302584"/>
     <use style="fill:#1f77b4;stroke:#1f77b4;" x="176.364169" xlink:href="#mb88d354993" y="125.514641"/>
     <use style="fill:#1f77b4;stroke:#1f77b4;" x="277.273793" xlink:href="#mb88d354993" y="154.414163"/>
     <use style="fill:#1f77b4;stroke:#1f77b4;" x="305.60973" xlink:href="#mb88d354993" y="72.108325"/>
     <use style="fill:#1f77b4;stroke:#1f77b4;" x="237.147727" xlink:href="#mb88d354993" y="144.472727"/>
     <use style="fill:#1f77b4;stroke:#1f77b4;" x="160.016513" xlink:href="#mb88d354993" y="94.071962"/>
     <use style="fill:#1f77b4;stroke:#1f77b4;" x="147.978693" xlink:href="#mb88d354993" y="119.272344"/>
     <use style="fill:#1f77b4;stroke:#1f77b4;" x="309.473722" xlink:href="#mb88d354993" y="71.877129"/>
     <use style="fill:#1f77b4;stroke:#1f77b4;" x="337.165661" xlink:href="#mb88d354993" y="41.590431"/>
     <use style="fill:#1f77b4;stroke:#1f77b4;" x="133.563033" xlink:href="#mb88d354993" y="114.879617"/>
     <use style="fill:#1f77b4;stroke:#1f77b4;" x="161.354048" xlink:href="#mb88d354993" y="118.116364"/>
     <use style="fill:#1f77b4;stroke:#1f77b4;" x="274.747337" xlink:href="#mb88d354993" y="79.737799"/>
     <use style="fill:#1f77b4;stroke:#1f77b4;" x="132.720881" xlink:href="#mb88d354993" y="131.525742"/>
     <use style="fill:#1f77b4;stroke:#1f77b4;" x="314.03125" xlink:href="#mb88d354993" y="61.473301"/>
     <use style="fill:#1f77b4;stroke:#1f77b4;" x="135.990412" xlink:href="#mb88d354993" y="154.645359"/>
     <use style="fill:#1f77b4;stroke:#1f77b4;" x="284.655007" xlink:href="#mb88d354993" y="55.231005"/>
     <use style="fill:#1f77b4;stroke:#1f77b4;" x="257.706143" xlink:href="#mb88d354993" y="104.475789"/>
     <use style="fill:#1f77b4;stroke:#1f77b4;" x="253.049538" xlink:href="#mb88d354993" y="112.336459"/>
     <use style="fill:#1f77b4;stroke:#1f77b4;" x="245.569247" xlink:href="#mb88d354993" y="94.996746"/>
     <use style="fill:#1f77b4;stroke:#1f77b4;" x="262.164595" xlink:href="#mb88d354993" y="114.648421"/>
     <use style="fill:#1f77b4;stroke:#1f77b4;" x="224.911754" xlink:href="#mb88d354993" y="127.364211"/>
     <use style="fill:#1f77b4;stroke:#1f77b4;" x="136.238104" xlink:href="#mb88d354993" y="160.887656"/>
     <use style="fill:#1f77b4;stroke:#1f77b4;" x="170.865412" xlink:href="#mb88d354993" y="163.199617"/>
     <use style="fill:#1f77b4;stroke:#1f77b4;" x="226.100675" xlink:href="#mb88d354993" y="96.61512"/>
     <use style="fill:#1f77b4;stroke:#1f77b4;" x="178.841087" xlink:href="#mb88d354993" y="123.202679"/>
     <use style="fill:#1f77b4;stroke:#1f77b4;" x="344.596413" xlink:href="#mb88d354993" y="36.966507"/>
     <use style="fill:#1f77b4;stroke:#1f77b4;" x="347.469638" xlink:href="#mb88d354993" y="31.186603"/>
     <use style="fill:#1f77b4;stroke:#1f77b4;" x="210.644709" xlink:href="#mb88d354993" y="163.199617"/>
     <use style="fill:#1f77b4;stroke:#1f77b4;" x="102.601563" xlink:href="#mb88d354993" y="169.210718"/>
     <use style="fill:#1f77b4;stroke:#1f77b4;" x="147.681463" xlink:href="#mb88d354993" y="150.021435"/>
     <use style="fill:#1f77b4;stroke:#1f77b4;" x="352.869318" xlink:href="#mb88d354993" y="17.083636"/>
     <use style="fill:#1f77b4;stroke:#1f77b4;" x="247.253551" xlink:href="#mb88d354993" y="174.52823"/>
     <use style="fill:#1f77b4;stroke:#1f77b4;" x="137.476563" xlink:href="#mb88d354993" y="147.015885"/>
     <use style="fill:#1f77b4;stroke:#1f77b4;" x="272.716264" xlink:href="#mb88d354993" y="82.280957"/>
     <use style="fill:#1f77b4;stroke:#1f77b4;" x="115.976918" xlink:href="#mb88d354993" y="105.862967"/>
     <use style="fill:#1f77b4;stroke:#1f77b4;" x="252.554155" xlink:href="#mb88d354993" y="101.007847"/>
     <use style="fill:#1f77b4;stroke:#1f77b4;" x="261.173828" xlink:href="#mb88d354993" y="92.684785"/>
     <use style="fill:#1f77b4;stroke:#1f77b4;" x="223.52468" xlink:href="#mb88d354993" y="91.76"/>
     <use style="fill:#1f77b4;stroke:#1f77b4;" x="311.207564" xlink:href="#mb88d354993" y="92.222392"/>
     <use style="fill:#1f77b4;stroke:#1f77b4;" x="328.397372" xlink:href="#mb88d354993" y="59.623732"/>
     <use style="fill:#1f77b4;stroke:#1f77b4;" x="243.141868" xlink:href="#mb88d354993" y="171.522679"/>
     <use style="fill:#1f77b4;stroke:#1f77b4;" x="281.633168" xlink:href="#mb88d354993" y="95.227943"/>
     <use style="fill:#1f77b4;stroke:#1f77b4;" x="252.950462" xlink:href="#mb88d354993" y="173.372249"/>
     <use style="fill:#1f77b4;stroke:#1f77b4;" x="161.651278" xlink:href="#mb88d354993" y="172.216268"/>
     <use style="fill:#1f77b4;stroke:#1f77b4;" x="215.796697" xlink:href="#mb88d354993" y="200.653397"/>
     <use style="fill:#1f77b4;stroke:#1f77b4;" x="190.928445" xlink:href="#mb88d354993" y="110.949282"/>
     <use style="fill:#1f77b4;stroke:#1f77b4;" x="267.712891" xlink:href="#mb88d354993" y="97.077512"/>
     <use style="fill:#1f77b4;stroke:#1f77b4;" x="149.811612" xlink:href="#mb88d354993" y="132.912919"/>
     <use style="fill:#1f77b4;stroke:#1f77b4;" x="316.854936" xlink:href="#mb88d354993" y="106.094163"/>
     <use style="fill:#1f77b4;stroke:#1f77b4;" x="328.001065" xlink:href="#mb88d354993" y="71.877129"/>
     <use style="fill:#1f77b4;stroke:#1f77b4;" x="241.556641" xlink:href="#mb88d354993" y="77.88823"/>
     <use style="fill:#1f77b4;stroke:#1f77b4;" x="332.954901" xlink:href="#mb88d354993" y="53.612632"/>
     <use style="fill:#1f77b4;stroke:#1f77b4;" x="256.120916" xlink:href="#mb88d354993" y="100.314258"/>
     <use style="fill:#1f77b4;stroke:#1f77b4;" x="133.810724" xlink:href="#mb88d354993" y="182.851292"/>
     <use style="fill:#1f77b4;stroke:#1f77b4;" x="245.816939" xlink:href="#mb88d354993" y="83.89933"/>
     <use style="fill:#1f77b4;stroke:#1f77b4;" x="347.370561" xlink:href="#mb88d354993" y="28.181053"/>
     <use style="fill:#1f77b4;stroke:#1f77b4;" x="346.379794" xlink:href="#mb88d354993" y="36.504115"/>
     <use style="fill:#1f77b4;stroke:#1f77b4;" x="175.819247" xlink:href="#mb88d354993" y="200.653397"/>
     <use style="fill:#1f77b4;stroke:#1f77b4;" x="171.905717" xlink:href="#mb88d354993" y="125.977033"/>
     <use style="fill:#1f77b4;stroke:#1f77b4;" x="243.835405" xlink:href="#mb88d354993" y="99.158278"/>
     <use style="fill:#1f77b4;stroke:#1f77b4;" x="196.080433" xlink:href="#mb88d354993" y="79.044211"/>
     <use style="fill:#1f77b4;stroke:#1f77b4;" x="156.301136" xlink:href="#mb88d354993" y="168.979522"/>
     <use style="fill:#1f77b4;stroke:#1f77b4;" x="271.62642" xlink:href="#mb88d354993" y="79.737799"/>
     <use style="fill:#1f77b4;stroke:#1f77b4;" x="265.136896" xlink:href="#mb88d354993" y="89.910431"/>
     <use style="fill:#1f77b4;stroke:#1f77b4;" x="231.698509" xlink:href="#mb88d354993" y="150.715024"/>
     <use style="fill:#1f77b4;stroke:#1f77b4;" x="182.556463" xlink:href="#mb88d354993" y="205.508517"/>
     <use style="fill:#1f77b4;stroke:#1f77b4;" x="155.954368" xlink:href="#mb88d354993" y="129.21378"/>
     <use style="fill:#1f77b4;stroke:#1f77b4;" x="257.012607" xlink:href="#mb88d354993" y="108.868517"/>
     <use style="fill:#1f77b4;stroke:#1f77b4;" x="243.240945" xlink:href="#mb88d354993" y="181.464115"/>
     <use style="fill:#1f77b4;stroke:#1f77b4;" x="332.112749" xlink:href="#mb88d354993" y="48.29512"/>
     <use style="fill:#1f77b4;stroke:#1f77b4;" x="318.093395" xlink:href="#mb88d354993" y="61.242105"/>
     <use style="fill:#1f77b4;stroke:#1f77b4;" x="304.618963" xlink:href="#mb88d354993" y="51.531866"/>
     <use style="fill:#1f77b4;stroke:#1f77b4;" x="215.400391" xlink:href="#mb88d354993" y="198.803828"/>
     <use style="fill:#1f77b4;stroke:#1f77b4;" x="234.571733" xlink:href="#mb88d354993" y="174.065837"/>
     <use style="fill:#1f77b4;stroke:#1f77b4;" x="167.645419" xlink:href="#mb88d354993" y="127.595407"/>
     <use style="fill:#1f77b4;stroke:#1f77b4;" x="152.387607" xlink:href="#mb88d354993" y="172.216268"/>
    </g>
   </g>
   <g id="matplotlib.axis_1">
    <g id="xtick_1">
     <g id="line2d_1">
      <defs>
       <path d="M 0 0 
L 0 3.5 
" id="m8c7f46169c" style="stroke:#000000;stroke-width:0.8;"/>
      </defs>
      <g>
       <use style="stroke:#000000;stroke-width:0.8;" x="42.115234" xlink:href="#m8c7f46169c" y="224.64"/>
      </g>
     </g>
     <g id="text_1">
      <!-- 30 -->
      <g transform="translate(35.752734 239.238437)scale(0.1 -0.1)">
       <defs>
        <path d="M 40.578125 39.3125 
Q 47.65625 37.796875 51.625 33 
Q 55.609375 28.21875 55.609375 21.1875 
Q 55.609375 10.40625 48.1875 4.484375 
Q 40.765625 -1.421875 27.09375 -1.421875 
Q 22.515625 -1.421875 17.65625 -0.515625 
Q 12.796875 0.390625 7.625 2.203125 
L 7.625 11.71875 
Q 11.71875 9.328125 16.59375 8.109375 
Q 21.484375 6.890625 26.8125 6.890625 
Q 36.078125 6.890625 40.9375 10.546875 
Q 45.796875 14.203125 45.796875 21.1875 
Q 45.796875 27.640625 41.28125 31.265625 
Q 36.765625 34.90625 28.71875 34.90625 
L 20.21875 34.90625 
L 20.21875 43.015625 
L 29.109375 43.015625 
Q 36.375 43.015625 40.234375 45.921875 
Q 44.09375 48.828125 44.09375 54.296875 
Q 44.09375 59.90625 40.109375 62.90625 
Q 36.140625 65.921875 28.71875 65.921875 
Q 24.65625 65.921875 20.015625 65.03125 
Q 15.375 64.15625 9.8125 62.3125 
L 9.8125 71.09375 
Q 15.4375 72.65625 20.34375 73.4375 
Q 25.25 74.21875 29.59375 74.21875 
Q 40.828125 74.21875 47.359375 69.109375 
Q 53.90625 64.015625 53.90625 55.328125 
Q 53.90625 49.265625 50.4375 45.09375 
Q 46.96875 40.921875 40.578125 39.3125 
z
" id="DejaVuSans-51"/>
        <path d="M 31.78125 66.40625 
Q 24.171875 66.40625 20.328125 58.90625 
Q 16.5 51.421875 16.5 36.375 
Q 16.5 21.390625 20.328125 13.890625 
Q 24.171875 6.390625 31.78125 6.390625 
Q 39.453125 6.390625 43.28125 13.890625 
Q 47.125 21.390625 47.125 36.375 
Q 47.125 51.421875 43.28125 58.90625 
Q 39.453125 66.40625 31.78125 66.40625 
z
M 31.78125 74.21875 
Q 44.046875 74.21875 50.515625 64.515625 
Q 56.984375 54.828125 56.984375 36.375 
Q 56.984375 17.96875 50.515625 8.265625 
Q 44.046875 -1.421875 31.78125 -1.421875 
Q 19.53125 -1.421875 13.0625 8.265625 
Q 6.59375 17.96875 6.59375 36.375 
Q 6.59375 54.828125 13.0625 64.515625 
Q 19.53125 74.21875 31.78125 74.21875 
z
" id="DejaVuSans-48"/>
       </defs>
       <use xlink:href="#DejaVuSans-51"/>
       <use x="63.623047" xlink:href="#DejaVuSans-48"/>
      </g>
     </g>
    </g>
    <g id="xtick_2">
     <g id="line2d_2">
      <g>
       <use style="stroke:#000000;stroke-width:0.8;" x="91.653587" xlink:href="#m8c7f46169c" y="224.64"/>
      </g>
     </g>
     <g id="text_2">
      <!-- 40 -->
      <g transform="translate(85.291087 239.238437)scale(0.1 -0.1)">
       <defs>
        <path d="M 37.796875 64.3125 
L 12.890625 25.390625 
L 37.796875 25.390625 
z
M 35.203125 72.90625 
L 47.609375 72.90625 
L 47.609375 25.390625 
L 58.015625 25.390625 
L 58.015625 17.1875 
L 47.609375 17.1875 
L 47.609375 0 
L 37.796875 0 
L 37.796875 17.1875 
L 4.890625 17.1875 
L 4.890625 26.703125 
z
" id="DejaVuSans-52"/>
       </defs>
       <use xlink:href="#DejaVuSans-52"/>
       <use x="63.623047" xlink:href="#DejaVuSans-48"/>
      </g>
     </g>
    </g>
    <g id="xtick_3">
     <g id="line2d_3">
      <g>
       <use style="stroke:#000000;stroke-width:0.8;" x="141.191939" xlink:href="#m8c7f46169c" y="224.64"/>
      </g>
     </g>
     <g id="text_3">
      <!-- 50 -->
      <g transform="translate(134.829439 239.238437)scale(0.1 -0.1)">
       <defs>
        <path d="M 10.796875 72.90625 
L 49.515625 72.90625 
L 49.515625 64.59375 
L 19.828125 64.59375 
L 19.828125 46.734375 
Q 21.96875 47.46875 24.109375 47.828125 
Q 26.265625 48.1875 28.421875 48.1875 
Q 40.625 48.1875 47.75 41.5 
Q 54.890625 34.8125 54.890625 23.390625 
Q 54.890625 11.625 47.5625 5.09375 
Q 40.234375 -1.421875 26.90625 -1.421875 
Q 22.3125 -1.421875 17.546875 -0.640625 
Q 12.796875 0.140625 7.71875 1.703125 
L 7.71875 11.625 
Q 12.109375 9.234375 16.796875 8.0625 
Q 21.484375 6.890625 26.703125 6.890625 
Q 35.15625 6.890625 40.078125 11.328125 
Q 45.015625 15.765625 45.015625 23.390625 
Q 45.015625 31 40.078125 35.4375 
Q 35.15625 39.890625 26.703125 39.890625 
Q 22.75 39.890625 18.8125 39.015625 
Q 14.890625 38.140625 10.796875 36.28125 
z
" id="DejaVuSans-53"/>
       </defs>
       <use xlink:href="#DejaVuSans-53"/>
       <use x="63.623047" xlink:href="#DejaVuSans-48"/>
      </g>
     </g>
    </g>
    <g id="xtick_4">
     <g id="line2d_4">
      <g>
       <use style="stroke:#000000;stroke-width:0.8;" x="190.730291" xlink:href="#m8c7f46169c" y="224.64"/>
      </g>
     </g>
     <g id="text_4">
      <!-- 60 -->
      <g transform="translate(184.367791 239.238437)scale(0.1 -0.1)">
       <defs>
        <path d="M 33.015625 40.375 
Q 26.375 40.375 22.484375 35.828125 
Q 18.609375 31.296875 18.609375 23.390625 
Q 18.609375 15.53125 22.484375 10.953125 
Q 26.375 6.390625 33.015625 6.390625 
Q 39.65625 6.390625 43.53125 10.953125 
Q 47.40625 15.53125 47.40625 23.390625 
Q 47.40625 31.296875 43.53125 35.828125 
Q 39.65625 40.375 33.015625 40.375 
z
M 52.59375 71.296875 
L 52.59375 62.3125 
Q 48.875 64.0625 45.09375 64.984375 
Q 41.3125 65.921875 37.59375 65.921875 
Q 27.828125 65.921875 22.671875 59.328125 
Q 17.53125 52.734375 16.796875 39.40625 
Q 19.671875 43.65625 24.015625 45.921875 
Q 28.375 48.1875 33.59375 48.1875 
Q 44.578125 48.1875 50.953125 41.515625 
Q 57.328125 34.859375 57.328125 23.390625 
Q 57.328125 12.15625 50.6875 5.359375 
Q 44.046875 -1.421875 33.015625 -1.421875 
Q 20.359375 -1.421875 13.671875 8.265625 
Q 6.984375 17.96875 6.984375 36.375 
Q 6.984375 53.65625 15.1875 63.9375 
Q 23.390625 74.21875 37.203125 74.21875 
Q 40.921875 74.21875 44.703125 73.484375 
Q 48.484375 72.75 52.59375 71.296875 
z
" id="DejaVuSans-54"/>
       </defs>
       <use xlink:href="#DejaVuSans-54"/>
       <use x="63.623047" xlink:href="#DejaVuSans-48"/>
      </g>
     </g>
    </g>
    <g id="xtick_5">
     <g id="line2d_5">
      <g>
       <use style="stroke:#000000;stroke-width:0.8;" x="240.268643" xlink:href="#m8c7f46169c" y="224.64"/>
      </g>
     </g>
     <g id="text_5">
      <!-- 70 -->
      <g transform="translate(233.906143 239.238437)scale(0.1 -0.1)">
       <defs>
        <path d="M 8.203125 72.90625 
L 55.078125 72.90625 
L 55.078125 68.703125 
L 28.609375 0 
L 18.3125 0 
L 43.21875 64.59375 
L 8.203125 64.59375 
z
" id="DejaVuSans-55"/>
       </defs>
       <use xlink:href="#DejaVuSans-55"/>
       <use x="63.623047" xlink:href="#DejaVuSans-48"/>
      </g>
     </g>
    </g>
    <g id="xtick_6">
     <g id="line2d_6">
      <g>
       <use style="stroke:#000000;stroke-width:0.8;" x="289.806996" xlink:href="#m8c7f46169c" y="224.64"/>
      </g>
     </g>
     <g id="text_6">
      <!-- 80 -->
      <g transform="translate(283.444496 239.238437)scale(0.1 -0.1)">
       <defs>
        <path d="M 31.78125 34.625 
Q 24.75 34.625 20.71875 30.859375 
Q 16.703125 27.09375 16.703125 20.515625 
Q 16.703125 13.921875 20.71875 10.15625 
Q 24.75 6.390625 31.78125 6.390625 
Q 38.8125 6.390625 42.859375 10.171875 
Q 46.921875 13.96875 46.921875 20.515625 
Q 46.921875 27.09375 42.890625 30.859375 
Q 38.875 34.625 31.78125 34.625 
z
M 21.921875 38.8125 
Q 15.578125 40.375 12.03125 44.71875 
Q 8.5 49.078125 8.5 55.328125 
Q 8.5 64.0625 14.71875 69.140625 
Q 20.953125 74.21875 31.78125 74.21875 
Q 42.671875 74.21875 48.875 69.140625 
Q 55.078125 64.0625 55.078125 55.328125 
Q 55.078125 49.078125 51.53125 44.71875 
Q 48 40.375 41.703125 38.8125 
Q 48.828125 37.15625 52.796875 32.3125 
Q 56.78125 27.484375 56.78125 20.515625 
Q 56.78125 9.90625 50.3125 4.234375 
Q 43.84375 -1.421875 31.78125 -1.421875 
Q 19.734375 -1.421875 13.25 4.234375 
Q 6.78125 9.90625 6.78125 20.515625 
Q 6.78125 27.484375 10.78125 32.3125 
Q 14.796875 37.15625 21.921875 38.8125 
z
M 18.3125 54.390625 
Q 18.3125 48.734375 21.84375 45.5625 
Q 25.390625 42.390625 31.78125 42.390625 
Q 38.140625 42.390625 41.71875 45.5625 
Q 45.3125 48.734375 45.3125 54.390625 
Q 45.3125 60.0625 41.71875 63.234375 
Q 38.140625 66.40625 31.78125 66.40625 
Q 25.390625 66.40625 21.84375 63.234375 
Q 18.3125 60.0625 18.3125 54.390625 
z
" id="DejaVuSans-56"/>
       </defs>
       <use xlink:href="#DejaVuSans-56"/>
       <use x="63.623047" xlink:href="#DejaVuSans-48"/>
      </g>
     </g>
    </g>
    <g id="xtick_7">
     <g id="line2d_7">
      <g>
       <use style="stroke:#000000;stroke-width:0.8;" x="339.345348" xlink:href="#m8c7f46169c" y="224.64"/>
      </g>
     </g>
     <g id="text_7">
      <!-- 90 -->
      <g transform="translate(332.982848 239.238437)scale(0.1 -0.1)">
       <defs>
        <path d="M 10.984375 1.515625 
L 10.984375 10.5 
Q 14.703125 8.734375 18.5 7.8125 
Q 22.3125 6.890625 25.984375 6.890625 
Q 35.75 6.890625 40.890625 13.453125 
Q 46.046875 20.015625 46.78125 33.40625 
Q 43.953125 29.203125 39.59375 26.953125 
Q 35.25 24.703125 29.984375 24.703125 
Q 19.046875 24.703125 12.671875 31.3125 
Q 6.296875 37.9375 6.296875 49.421875 
Q 6.296875 60.640625 12.9375 67.421875 
Q 19.578125 74.21875 30.609375 74.21875 
Q 43.265625 74.21875 49.921875 64.515625 
Q 56.59375 54.828125 56.59375 36.375 
Q 56.59375 19.140625 48.40625 8.859375 
Q 40.234375 -1.421875 26.421875 -1.421875 
Q 22.703125 -1.421875 18.890625 -0.6875 
Q 15.09375 0.046875 10.984375 1.515625 
z
M 30.609375 32.421875 
Q 37.25 32.421875 41.125 36.953125 
Q 45.015625 41.5 45.015625 49.421875 
Q 45.015625 57.28125 41.125 61.84375 
Q 37.25 66.40625 30.609375 66.40625 
Q 23.96875 66.40625 20.09375 61.84375 
Q 16.21875 57.28125 16.21875 49.421875 
Q 16.21875 41.5 20.09375 36.953125 
Q 23.96875 32.421875 30.609375 32.421875 
z
" id="DejaVuSans-57"/>
       </defs>
       <use xlink:href="#DejaVuSans-57"/>
       <use x="63.623047" xlink:href="#DejaVuSans-48"/>
      </g>
     </g>
    </g>
   </g>
   <g id="matplotlib.axis_2">
    <g id="ytick_1">
     <g id="line2d_8">
      <defs>
       <path d="M 0 0 
L -3.5 0 
" id="mdd7835fe7f" style="stroke:#000000;stroke-width:0.8;"/>
      </defs>
      <g>
       <use style="stroke:#000000;stroke-width:0.8;" x="33.2875" xlink:href="#mdd7835fe7f" y="199.035024"/>
      </g>
     </g>
     <g id="text_8">
      <!-- 20 -->
      <g transform="translate(13.5625 202.834243)scale(0.1 -0.1)">
       <defs>
        <path d="M 19.1875 8.296875 
L 53.609375 8.296875 
L 53.609375 0 
L 7.328125 0 
L 7.328125 8.296875 
Q 12.9375 14.109375 22.625 23.890625 
Q 32.328125 33.6875 34.8125 36.53125 
Q 39.546875 41.84375 41.421875 45.53125 
Q 43.3125 49.21875 43.3125 52.78125 
Q 43.3125 58.59375 39.234375 62.25 
Q 35.15625 65.921875 28.609375 65.921875 
Q 23.96875 65.921875 18.8125 64.3125 
Q 13.671875 62.703125 7.8125 59.421875 
L 7.8125 69.390625 
Q 13.765625 71.78125 18.9375 73 
Q 24.125 74.21875 28.421875 74.21875 
Q 39.75 74.21875 46.484375 68.546875 
Q 53.21875 62.890625 53.21875 53.421875 
Q 53.21875 48.921875 51.53125 44.890625 
Q 49.859375 40.875 45.40625 35.40625 
Q 44.1875 33.984375 37.640625 27.21875 
Q 31.109375 20.453125 19.1875 8.296875 
z
" id="DejaVuSans-50"/>
       </defs>
       <use xlink:href="#DejaVuSans-50"/>
       <use x="63.623047" xlink:href="#DejaVuSans-48"/>
      </g>
     </g>
    </g>
    <g id="ytick_2">
     <g id="line2d_9">
      <g>
       <use style="stroke:#000000;stroke-width:0.8;" x="33.2875" xlink:href="#mdd7835fe7f" y="152.795789"/>
      </g>
     </g>
     <g id="text_9">
      <!-- 40 -->
      <g transform="translate(13.5625 156.595008)scale(0.1 -0.1)">
       <use xlink:href="#DejaVuSans-52"/>
       <use x="63.623047" xlink:href="#DejaVuSans-48"/>
      </g>
     </g>
    </g>
    <g id="ytick_3">
     <g id="line2d_10">
      <g>
       <use style="stroke:#000000;stroke-width:0.8;" x="33.2875" xlink:href="#mdd7835fe7f" y="106.556555"/>
      </g>
     </g>
     <g id="text_10">
      <!-- 60 -->
      <g transform="translate(13.5625 110.355774)scale(0.1 -0.1)">
       <use xlink:href="#DejaVuSans-54"/>
       <use x="63.623047" xlink:href="#DejaVuSans-48"/>
      </g>
     </g>
    </g>
    <g id="ytick_4">
     <g id="line2d_11">
      <g>
       <use style="stroke:#000000;stroke-width:0.8;" x="33.2875" xlink:href="#mdd7835fe7f" y="60.317321"/>
      </g>
     </g>
     <g id="text_11">
      <!-- 80 -->
      <g transform="translate(13.5625 64.116539)scale(0.1 -0.1)">
       <use xlink:href="#DejaVuSans-56"/>
       <use x="63.623047" xlink:href="#DejaVuSans-48"/>
      </g>
     </g>
    </g>
    <g id="ytick_5">
     <g id="line2d_12">
      <g>
       <use style="stroke:#000000;stroke-width:0.8;" x="33.2875" xlink:href="#mdd7835fe7f" y="14.078086"/>
      </g>
     </g>
     <g id="text_12">
      <!-- 100 -->
      <g transform="translate(7.2 17.877305)scale(0.1 -0.1)">
       <defs>
        <path d="M 12.40625 8.296875 
L 28.515625 8.296875 
L 28.515625 63.921875 
L 10.984375 60.40625 
L 10.984375 69.390625 
L 28.421875 72.90625 
L 38.28125 72.90625 
L 38.28125 8.296875 
L 54.390625 8.296875 
L 54.390625 0 
L 12.40625 0 
z
" id="DejaVuSans-49"/>
       </defs>
       <use xlink:href="#DejaVuSans-49"/>
       <use x="63.623047" xlink:href="#DejaVuSans-48"/>
       <use x="127.246094" xlink:href="#DejaVuSans-48"/>
      </g>
     </g>
    </g>
   </g>
   <g id="patch_3">
    <path d="M 33.2875 224.64 
L 33.2875 7.2 
" style="fill:none;stroke:#000000;stroke-linecap:square;stroke-linejoin:miter;stroke-width:0.8;"/>
   </g>
   <g id="patch_4">
    <path d="M 368.0875 224.64 
L 368.0875 7.2 
" style="fill:none;stroke:#000000;stroke-linecap:square;stroke-linejoin:miter;stroke-width:0.8;"/>
   </g>
   <g id="patch_5">
    <path d="M 33.2875 224.64 
L 368.0875 224.64 
" style="fill:none;stroke:#000000;stroke-linecap:square;stroke-linejoin:miter;stroke-width:0.8;"/>
   </g>
   <g id="patch_6">
    <path d="M 33.2875 7.2 
L 368.0875 7.2 
" style="fill:none;stroke:#000000;stroke-linecap:square;stroke-linejoin:miter;stroke-width:0.8;"/>
   </g>
  </g>
 </g>
 <defs>
  <clipPath id="p3786167dfe">
   <rect height="217.44" width="334.8" x="33.2875" y="7.2"/>
  </clipPath>
 </defs>
</svg>
